<svg xmlns="http://www.w3.org/2000/svg" viewBox="0 0 558 800"><path d="M244.4,778.8C238.9,762.1 220.5,722.6 208.2,701.2C171.5,637.2 121.5,590.0 98.9,597.9C95.9,598.9 95.5,598.8 92.0,595.1C90.0,593.0 86.5,587.5 84.2,582.9C75.9,565.8 72.3,547.4 73.3,526.2C74.2,505.9 78.0,490.3 86.2,473.1L90.2,464.8L93.8,465.4C98.7,466.2 119.5,476.6 130.5,483.7C157.6,501.5 185.4,529.4 204.2,557.8C230.9,598.4 248.4,650.8 254.6,709.3C255.8,721.1 256.1,730.4 255.6,751.0C255.3,765.6 254.8,779.0 254.4,780.8C253.8,783.7 253.5,784.0 250.0,784.0C246.3,784.0 246.1,783.9 244.4,778.8ZM315.7,782.6C314.0,778.2 312.8,753.7 313.3,734.6C314.8,680.5 328.2,626.8 351.1,583.0C364.2,558.1 381.1,535.9 403.8,513.8C418.4,499.6 431.9,489.1 448.4,479.3C459.9,472.4 475.3,465.0 478.1,465.0C481.5,465.0 490.2,485.2 494.2,502.4C496.9,514.1 497.8,537.9 496.0,550.0C493.6,566.5 485.9,586.7 478.8,595.3C476.4,598.2 476.0,598.3 467.0,597.4C443.0,595.1 398.1,637.4 364.3,694.0C350.6,717.1 336.3,747.3 326.5,773.8C322.7,783.9 322.6,784.0 319.5,784.0C317.6,784.0 316.0,783.4 315.7,782.6ZM265.7,651.2C265.4,650.8 263.2,644.3 260.6,636.8C242.6,583.4 210.7,532.1 163.1,480.2C140.7,455.7 111.0,432.2 77.2,412.3C76.3,411.7 75.7,404.0 75.0,381.5C74.4,365.0 73.5,339.5 73.0,324.8L72.0,298.2L78.3,291.8C97.6,272.5 112.4,236.5 120.0,190.7C130.1,129.3 130.1,79.5 120.0,39.9C116.7,27.0 118.7,27.2 130.6,40.8C145.8,58.1 153.6,72.2 162.0,97.7C171.9,127.9 179.7,174.8 183.0,223.8C183.5,232.3 184.0,239.6 184.0,240.1C184.0,240.6 181.9,242.1 179.2,243.4C173.3,246.4 165.6,254.5 162.8,260.7C161.1,264.5 160.6,267.5 160.5,274.5C160.5,282.7 160.8,284.1 163.8,290.2C167.6,298.0 174.4,304.6 182.8,308.7C187.8,311.2 189.6,311.5 197.5,311.4C208.8,311.4 215.3,308.6 222.9,300.5C230.4,292.6 232.4,287.5 232.5,276.5C232.5,268.8 232.1,266.7 229.8,261.8C226.7,255.1 220.2,247.8 214.4,244.4L210.1,241.9L213.4,232.7C216.7,223.8 228.5,193.1 253.9,127.0C267.1,92.9 279.4,62.2 281.6,57.7C284.3,52.6 286.4,54.2 291.3,65.2C300.9,86.9 318.9,135.1 345.2,209.5C348.5,218.8 352.2,229.6 353.6,233.3C356.6,241.8 356.6,242.6 353.6,243.4C349.5,244.4 340.6,253.5 337.0,260.2C332.6,268.4 331.8,278.6 334.8,287.2C340.4,303.2 352.5,311.5 370.0,311.5C377.1,311.4 379.5,311.0 384.5,308.7C391.7,305.4 400.2,297.4 403.8,290.5C406.2,286.0 406.5,284.5 406.5,275.0C406.5,265.5 406.2,264.0 403.8,259.4C400.6,253.2 393.2,245.7 387.9,242.9L384.0,240.9L384.5,234.7C384.7,231.3 385.2,223.1 385.5,216.5C386.6,191.5 393.2,149.6 400.4,121.8C407.5,94.5 416.9,71.9 428.4,54.7C434.7,45.1 447.4,31.0 449.7,31.0C451.5,31.0 451.4,31.4 447.6,47.5C442.9,67.8 441.6,81.2 441.6,109.5C441.7,145.1 445.5,177.0 453.6,210.0C462.9,247.6 475.3,274.5 490.9,290.5L497.7,297.5L496.1,354.3C494.3,418.2 495.3,411.7 486.5,416.2C479.7,419.7 454.9,436.5 446.1,443.6C418.8,465.7 392.4,493.6 367.9,526.5C340.6,563.2 320.1,600.8 306.5,639.5L302.2,651.5L298.4,651.5L294.5,651.5L293.8,646.0C293.5,643.0 293.2,600.5 293.1,551.6L293.0,462.6L304.5,451.0C313.1,442.2 316.0,438.7 316.0,436.8C316.0,435.1 313.8,431.5 309.6,426.5C306.1,422.3 299.2,413.5 294.4,407.0C289.5,400.5 284.9,394.9 284.2,394.6C283.5,394.3 281.1,396.7 278.2,400.7C275.6,404.3 269.1,412.9 263.6,419.9C253.1,433.4 251.6,435.9 252.8,438.9C253.2,440.0 258.4,446.1 264.3,452.4L275.2,464.0L274.8,556.4C274.6,632.8 274.3,649.0 273.1,650.3C271.7,652.0 266.5,652.6 265.7,651.2Z" fill="#7d3982" fill-rule="evenodd"/></svg>